<svg xmlns="http://www.w3.org/2000/svg" width="14" height="16" viewBox="0 0 448 512"><!--!Font Awesome Free 6.5.1 by @fontawesome - https://fontawesome.com License - https://fontawesome.com/license/free Copyright 2023 Fonticons, Inc.--><path d="M448 73.1v45.7c0 40.3-100.3 73.2-224 73.2S0 159.1 0 118.9V73.1C0 32.9 100.3 0 224 0s224 32.9 224 73.1zm0 102.9v102.9c0 40.2-100.3 73.1-224 73.1S0 319.1 0 278.9V176c48.1 33.1 136.2 48.6 224 48.6s175.9-15.5 224-48.6zm0 160v102.9c0 40.2-100.3 73.1-224 73.1S0 479.1 0 438.9V336c48.1 33.1 136.2 48.6 224 48.6s175.9-15.5 224-48.6z"/></svg>